<?xml version="1.0" encoding="utf-8"?>
<!-- Generator: Adobe Illustrator 19.2.1, SVG Export Plug-In . SVG Version: 6.00 Build 0)  -->
<svg version="1.1" id="Layer_1" xmlns="http://www.w3.org/2000/svg" xmlns:xlink="http://www.w3.org/1999/xlink" x="0px" y="0px"
	 viewBox="0 0 84.5 53.4" style="enable-background:new 0 0 84.5 53.4;" xml:space="preserve">
<style type="text/css">
	.st0{fill:#D9FAD9;}
</style>
<title>logo</title>
<path class="st0" d="M84.5,53.4H0V0h84.5V53.4z M3.1,50.3h78.3V3.1H3.1V50.3z"/>
<path class="st0" d="M32.8,15.9c3.5-0.1,6.8,1.6,8.6,4.6l-3.7,2c-1.1-1.6-3-2.6-4.9-2.6c-3.6,0-6.5,2.9-6.5,6.4c0,0.1,0,0.3,0,0.4
	c-0.2,3.6,2.6,6.6,6.1,6.8c0.1,0,0.3,0,0.4,0c1.6,0,3.2-0.5,4.5-1.6v-2.5h-5.6v-3.8h9.9v8c-2.2,2.6-5.5,4-8.9,3.9
	c-6.1,0-11.1-4.3-11.1-10.8S26.7,15.9,32.8,15.9z"/>
<path class="st0" d="M53.6,29.6h-3.2v7.5h-4.4V16.3h9.8c4.3,0,7,2.8,7,6.7c0.2,2.9-1.7,5.5-4.6,6.2l4.7,7.9h-5.1L53.6,29.6z
	 M55,20.1h-4.7v5.8H55c1.6,0.1,3-1.1,3-2.7c0.1-1.6-1.1-3-2.7-3C55.2,20.1,55.1,20.1,55,20.1z"/>
</svg>
